<svg width="512" height="512" viewBox="0 0 512 512" fill="none" xmlns="http://www.w3.org/2000/svg">
  <rect width="512" height="512" rx="256" fill="#FFF7F8"/>
  <path d="M262.256 185.184V210.316V212.751C262.256 214.532 262.602 216.297 263.274 217.947C263.983 219.685 265.04 221.26 266.38 222.575L270.76 226.871C273.391 229.452 275.113 232.818 275.667 236.462C275.796 237.308 275.86 238.163 275.86 239.019V372.115C275.86 375.066 275.046 377.959 273.506 380.477C272.984 381.331 272.383 382.134 271.71 382.876L269.468 385.35C266.208 388.948 261.58 391 256.725 391C252.221 391 247.897 389.233 244.681 386.079L242.31 383.753C240.97 382.439 239.913 380.864 239.205 379.125C238.532 377.476 238.186 375.711 238.186 373.93V239.019C238.186 238.163 238.251 237.308 238.379 236.462C238.933 232.818 240.655 229.452 243.286 226.871L247.666 222.575C249.006 221.26 250.063 219.685 250.772 217.947C251.445 216.297 251.791 214.532 251.791 212.751V210.316V185.672C251.791 177.048 248.788 168.693 243.299 162.041L240.708 158.901C236.397 153.677 234.225 147.013 234.631 140.251L234.767 137.986C234.95 134.925 235.911 131.962 237.558 129.377C239.338 126.584 241.873 124.325 244.846 122.867C247.338 121.644 250.094 121 252.87 121H259.749C262.094 121 264.416 121.468 266.578 122.377C269.237 123.495 271.581 125.249 273.404 127.484L274.076 128.308C277.261 132.213 279 137.098 279 142.137V143.404C279 149.483 276.823 155.361 272.863 159.974L270.628 162.578C265.226 168.871 262.256 176.891 262.256 185.184Z" fill="#575757"/>
</svg>
